<svg width="24" height="25" viewBox="0 0 24 25" fill="none" xmlns="http://www.w3.org/2000/svg">
<path d="M20.84 5.4159C20.3292 4.90491 19.7228 4.49955 19.0554 4.22299C18.3879 3.94642 17.6725 3.80408 16.95 3.80408C16.2275 3.80408 15.5121 3.94642 14.8446 4.22299C14.1772 4.49955 13.5708 4.90491 13.06 5.4159L12 6.4759L10.94 5.4159C9.90831 4.38421 8.50903 3.80461 7.05 3.80461C5.59097 3.80461 4.19169 4.38421 3.16 5.4159C2.12831 6.4476 1.54871 7.84687 1.54871 9.3059C1.54871 10.7649 2.12831 12.1642 3.16 13.1959L4.22 14.2559L12 22.0359L19.78 14.2559L20.84 13.1959C21.351 12.6851 21.7564 12.0787 22.0329 11.4113C22.3095 10.7438 22.4518 10.0284 22.4518 9.3059C22.4518 8.58341 22.3095 7.86801 22.0329 7.20055C21.7564 6.53309 21.351 5.92666 20.84 5.4159V5.4159Z" stroke="black" stroke-width="2" stroke-linecap="round" stroke-linejoin="round"/>
</svg>
