<svg width="23" height="23" viewBox="0 0 23 23" fill="none" xmlns="http://www.w3.org/2000/svg">
<path d="M26.8409 -0.789819C26.1568 -1.49051 25.3445 -2.04635 24.4504 -2.42558C23.5563 -2.80481 22.598 -3 21.6302 -3C20.6625 -3 19.7042 -2.80481 18.8101 -2.42558C17.916 -2.04635 17.1037 -1.49051 16.4195 -0.789819L14.9996 0.663684L13.5798 -0.789819C12.1978 -2.2045 10.3234 -2.99927 8.36905 -2.99927C6.41466 -2.99927 4.54031 -2.2045 3.15835 -0.789819C1.77638 0.624867 1 2.54359 1 4.54426C1 6.54493 1.77638 8.46365 3.15835 9.87834L4.57823 11.3318L14.9996 22L25.4211 11.3318L26.8409 9.87834C27.5254 9.17798 28.0684 8.34642 28.4389 7.43118C28.8093 6.51594 29 5.53496 29 4.54426C29 3.55356 28.8093 2.57258 28.4389 1.65734C28.0684 0.742098 27.5254 -0.0894555 26.8409 -0.789819V-0.789819Z" stroke="black" stroke-width="2" stroke-linecap="round" stroke-linejoin="round"/>
</svg>
